<ttFont>
<head>
    <!-- Most of this table will be recalculated by the compiler -->
    <tableVersion value="1.0"/>
    <fontRevision value="1.0"/>
    <checkSumAdjustment value="0xb2c793ca"/>
    <magicNumber value="0x5f0f3cf5"/>
    <flags value="00000000 00000011"/>
    <unitsPerEm value="1000"/>
    <created value="Thu Mar 12 21:40:26 2020"/>
    <modified value="Thu Mar 12 21:40:26 2020"/>
    <xMin value="-242"/>
    <yMin value="-250"/>
    <xMax value="750"/>
    <yMax value="561"/>
    <macStyle value="00000000 00000000"/>
    <lowestRecPPEM value="3"/>
    <fontDirectionHint value="2"/>
    <indexToLocFormat value="0"/>
    <glyphDataFormat value="0"/>
  </head>
          <CharString index="0">
            11 9 9 11 -105 callsubr
            return
          </CharString>
          <CharString index="1">
            -105 callgsubr
            210 return
          </CharString>
          <CharString index="2">
            11 9 -82 callgsubr
            -9 -11 return
          </CharString>
          <CharString index="3">
            -55 -4 callsubr
            61 -31 callsubr
            vstem
            149 -40 rmoveto
            -32 -12 3 -106 callgsubr
            -85 57 -19 74 -1 vhcurveto
            return
          </CharString>
          <CharString index="4">
            -106 callsubr
            99 -42 callgsubr
            return
          </CharString>
          <CharString index="5">
            rmoveto
            -32 -22 6 -106 callgsubr
            -83 55 -20 72 -2 vhcurveto
            return
          </CharString>
          <CharString index="6">
            -50 36 callgsubr
            67 64 -21 70 83 25 callgsubr
            159 -43 -103 callgsubr
          </CharString>
          <CharString index="7">
            vlineto
            -99 callgsubr
            return
          </CharString>
          <CharString index="8">
            vlineto
            -91 callgsubr
            return
          </CharString>
          <CharString index="9">
            rmoveto
            -107 callsubr
            16 callsubr
            vhcurveto
            return
          </CharString>
          <CharString index="10">
            16 13 13 16 16 -13 13 -16 -16 -13 -13 -16 -16 13 -13 16 hvcurveto
            return
          </CharString>
          <CharString index="11">
            -9 -5 5 4 -4 hvcurveto
            -64 64 rlineto
            return
          </CharString>
          <CharString index="12">
            -96 callgsubr
            67 70 -31 hlineto
            -96 callsubr
            return
          </CharString>
          <CharString index="13">
            -98 callsubr
            endchar
          </CharString>
          <CharString index="14">
            -20 -17 5 15 -11 hvcurveto
            return
          </CharString>
          <CharString index="15">
            -91 callsubr
            30 -110 rmoveto
            -89 callsubr
          </CharString>
          <CharString index="16">
            -51 callsubr
            -70 20 -44 hvcurveto
            return
          </CharString>
          <CharString index="17">
            -103 callsubr
            -57 callsubr
            11 hvcurveto
            return
          </CharString>
          <CharString index="18">
            -466 40 426 -82 callsubr
            endchar
          </CharString>
          <CharString index="19">
            -50 50 -44 -149 -49 vvcurveto
            return
          </CharString>
          <CharString index="20">
            459 -62 callsubr
            -137 -86 callgsubr
            405 -62 callsubr
            -436 -13 callsubr
            return
          </CharString>
          <CharString index="21">
            -74 callsubr
            -52 callsubr
            return
          </CharString>
          <CharString index="22">
            vlineto
            -36 callsubr
            vhcurveto
            -84 callsubr
          </CharString>
          <CharString index="23">
            -110 -100 callgsubr
          </CharString>
          <CharString index="24">
            hmoveto
            -97 callsubr
            return
          </CharString>
          <CharString index="25">
            hlineto
            -87 callgsubr
            return
          </CharString>
          <CharString index="26">
            232 27 callsubr
            0 83 77 -20 31 callsubr
            161 62 hintmask 11011100
            -3 callsubr
            308 -28 callsubr
            -49 hlineto
            -96 callsubr
            hintmask 10111100
            -79 callgsubr
            return
          </CharString>
          <CharString index="27">
            -52 callgsubr
            7 7 1 1 6 return
          </CharString>
          <CharString index="28">
            -46 callsubr
            -50 45 -40 55 return
          </CharString>
          <CharString index="29">
            -22 -16 7 13 -10 hvcurveto
            -52 -90 rlineto
            return
          </CharString>
          <CharString index="30">
            hlineto
            -91 callsubr
            return
          </CharString>
          <CharString index="31">
            -139 hlineto
            -32 -53 47 31 39 65 31 20 9 hvcurveto
            -57 callgsubr
            return
          </CharString>
          <CharString index="32">
            -60 callgsubr
            20 40 vlineto
            -140 110 5 callgsubr
            -150 -100 callgsubr
          </CharString>
          <CharString index="33">
            -63 callgsubr
            160 -20 return
          </CharString>
          <CharString index="34">
            rmoveto
            -89 callgsubr
            -17 -29 rlineto
            108 hlineto
            return
          </CharString>
          <CharString index="35">
            -82 callsubr
            -196 58 callgsubr
            299 -77 callsubr
            return
          </CharString>
          <CharString index="36">
            70 rmoveto
            95 -15 -58 15 -38 hhcurveto
            return
          </CharString>
          <CharString index="37">
            343 37 callgsubr
            -87 callsubr
            return
          </CharString>
          <CharString index="38">
            0 70 40 70 return
          </CharString>
          <CharString index="39">
            7 callsubr
            hvcurveto
            -1 -110 -104 callgsubr
          </CharString>
          <CharString index="40">
            -160 20 -94 callsubr
          </CharString>
          <CharString index="41">
            -200 -100 callsubr
            150 -99 callsubr
            -170 -100 callsubr
            return
          </CharString>
          <CharString index="42">
            18 -6 -14 11 -14 hhcurveto
            -32 -14 -32 -26 8 hvcurveto
            -11 hlineto
            return
          </CharString>
          <CharString index="43">
            -110 70 40 46 callgsubr
            hintmask 11010000
            return
          </CharString>
          <CharString index="44">
            rmoveto
            -80 callsubr
            hvcurveto
            -42 return
          </CharString>
          <CharString index="45">
            hlineto
            41 70 rlineto
            return
          </CharString>
          <CharString index="46">
            -17 10 47 79 17 -10 rlineto
            return
          </CharString>
          <CharString index="47">
            -380 7 callgsubr
            539 hlineto
            -57 callsubr
            11 hvcurveto
            return
          </CharString>
          <CharString index="48">
            rmoveto
            30 -34 -40 -10 rlineto
            40 -2 rmoveto
            -9 -44 -31 34 rlineto
            endchar
          </CharString>
          <CharString index="49">
            -78 callgsubr
            325 -99 callsubr
            -305 -47 callgsubr
            return
          </CharString>
          <CharString index="50">
            6 15 0 return
          </CharString>
          <CharString index="51">
            67 43 46 callgsubr
            85 80 hintmask 11101100
            57 67 rmoveto
            -95 callsubr
            hintmask 11011100
            -9 callgsubr
            return
          </CharString>
          <CharString index="52">
            0 29 33 25 hstem
            0 125 vstem
            125 29 -73 callsubr
            endchar
          </CharString>
          <CharString index="53">
            -11 callsubr
            endchar
          </CharString>
          <CharString index="54">
            hlineto
            -50 -40 -40 -50 -50 40 -40 50 hvcurveto
            return
          </CharString>
          <CharString index="55">
            hstem
            -51 callgsubr
            vstem
            return
          </CharString>
          <CharString index="56">
            -57 callsubr
            21 139 return
          </CharString>
          <CharString index="57">
            480 -99 callsubr
            -460 vlineto
            -50 37 -30 40 30 31 16 34 22 vhcurveto
            -4 -9 -12 -3 -12 hhcurveto
            return
          </CharString>
          <CharString index="58">
            199 hlineto
            -10 callsubr
            -150 90 -59 callsubr
          </CharString>
          <CharString index="59">
            -86 callsubr
            57 callgsubr
            return
          </CharString>
          <CharString index="60">
            hstem
            -22 callsubr
            vstem
            return
          </CharString>
          <CharString index="61">
            -45 -40 -50 return
          </CharString>
          <CharString index="62">
            -92 callgsubr
            -93 hlineto
            -96 callsubr
            hintmask 10110000
            -79 callgsubr
            return
          </CharString>
          <CharString index="63">
            hlineto
            -96 -54 -78 -82 -12 callgsubr
            hvcurveto
            -8 -49 -35 -4 -26 hhcurveto
            return
          </CharString>
          <CharString index="64">
            -55 -46 callsubr
            return
          </CharString>
          <CharString index="65">
            -98 callsubr
            20 -130 -104 callgsubr
          </CharString>
          <CharString index="66">
            23 0 60 -60 70 490 -20 hstemhm
            40 80 40 80 hintmask 00000000
            hintmask 01111000
            227 70 rmoveto
            -55 72 -48 callgsubr
            return
          </CharString>
          <CharString index="67">
            -50 callgsubr
            -46 callgsubr
            return
          </CharString>
          <CharString index="68">
            172 -82 callsubr
            -236 hlineto
            return
          </CharString>
          <CharString index="69">
            -43 callsubr
            -60 45 -30 55 return
          </CharString>
          <CharString index="70">
            -15 callsubr
            32 callgsubr
            return
          </CharString>
          <CharString index="71">
            50 -45 40 -55 return
          </CharString>
          <CharString index="72">
            rmoveto
            108 hlineto
            17 29 rlineto
            -89 callgsubr
            return
          </CharString>
          <CharString index="73">
            rmoveto
            -1 callgsubr
            hvcurveto
            hintmask 11010000
            139 -69 43 -147 47 vhcurveto
            28 callgsubr
            -39 callsubr
            endchar
          </CharString>
          <CharString index="74">
            -7 1 -7 1 -6 return
          </CharString>
          <CharString index="75">
            -2 callgsubr
            360 80 return
          </CharString>
          <CharString index="76">
            -21 70 83 hstem
            0 42 return
          </CharString>
          <CharString index="77">
            0 70 160 -20 hstem
            return
          </CharString>
          <CharString index="78">
            rmoveto
            -50 callsubr
            -24 -23 11 26 hvcurveto
            endchar
          </CharString>
          <CharString index="79">
            -62 callsubr
            -76 callsubr
            return
          </CharString>
          <CharString index="80">
            -61 callsubr
            -1 -79 -25 callsubr
            return
          </CharString>
          <CharString index="81">
            -60 45 -30 55 -9 callsubr
            return
          </CharString>
          <CharString index="82">
            rmoveto
            -61 callsubr
            return
          </CharString>
          <CharString index="83">
            -44 callsubr
            -6 callsubr
            return
          </CharString>
          <CharString index="84">
            -15 callsubr
            40 70 70 70 40 70 hstemhm
            0 80 40 80 -28 84 return
          </CharString>
          <CharString index="85">
            0 80 40 80 40 80 return
          </CharString>
          <CharString index="86">
            -103 callsubr
            -10 callsubr
            return
          </CharString>
          <CharString index="87">
            -57 0 -6 callgsubr
            return
          </CharString>
          <CharString index="88">
            0 89 hstem
            0 110 1 callgsubr
            endchar
          </CharString>
          <CharString index="89">
            443 -37 callsubr
            40 70 hstem
            70 80 466 return
          </CharString>
          <CharString index="90">
            120 hlineto
            return
          </CharString>
          <CharString index="91">
            0 58 hstem
            0 58 vstem
            4 callsubr
            endchar
          </CharString>
          <CharString index="92">
            -250 70 return
          </CharString>
          <CharString index="93">
            -71 callsubr
            -436 return
          </CharString>
          <CharString index="94">
            hlineto
            -67 callgsubr
            return
          </CharString>
          <CharString index="95">
            27 callgsubr
            80 return
          </CharString>
          <CharString index="96">
            -140 -60 callsubr
            219 vlineto
            return
          </CharString>
          <CharString index="97">
            61 70 hlineto
            return
          </CharString>
          <CharString index="98">
            65 35 30 60 return
          </CharString>
          <CharString index="99">
            -53 callsubr
            445 -62 callsubr
            -476 56 callgsubr
            return
          </CharString>
          <CharString index="100">
            rcurveline
            -39 callsubr
            -40 -70 rlineto
            -1 callgsubr
            36 return
          </CharString>
          <CharString index="101">
            -83 -91 36 90 67 50 26 40 hvcurveto
            return
          </CharString>
          <CharString index="102">
            -43 callsubr
            -33 callsubr
            return
          </CharString>
          <CharString index="103">
            -110 70 return
          </CharString>
          <CharString index="104">
            57 67 rmoveto
            -96 callgsubr
            return
          </CharString>
          <CharString index="105">
            36 callsubr
            -43 callsubr
            return
          </CharString>
          <CharString index="106">
            70 rmoveto
            hintmask 01011000
            -39 callgsubr
            vhcurveto
            hintmask 10110100
            return
          </CharString>
          <CharString index="107">
            -47 21 -21 189 34 callgsubr
            -91 -70 91 -70 return
          </CharString>
          <CharString index="108">
            vlineto
            -1 -7 -6 0 -7 hhcurveto
            29 callgsubr
            return
          </CharString>
          <CharString index="109">
            27 callsubr
            40 70 hstem
            return
          </CharString>
          <CharString index="110">
            200 70 rmoveto
            return
          </CharString>
          <CharString index="111">
            29 -83 callsubr
            return
          </CharString>
          <CharString index="112">
            11 callsubr
            30 callsubr
            return
          </CharString>
          <CharString index="113">
            15 callgsubr
            rlineto
            return
          </CharString>
          <CharString index="114">
            hlineto
            24 13 37 65 11 callsubr
            return
          </CharString>
          <CharString index="115">
            -40 -70 rlineto
            return
          </CharString>
          <CharString index="116">
            -57 0 70 40 20 33 callgsubr
            return
          </CharString>
          <CharString index="117">
            vlineto
            -35 -20 -20 0 -40 hhcurveto
            return
          </CharString>
          <CharString index="118">
            77 -19 111 -93 return
          </CharString>
          <CharString index="119">
            -14 27 callsubr
            hstem
            213 70 vstem
            283 1 rmoveto
            69 return
          </CharString>
          <CharString index="120">
            -140 -100 callsubr
            51 callgsubr
            return
          </CharString>
          <CharString index="121">
            27 callsubr
            hstem
            0 80 vstem
            return
          </CharString>
          <CharString index="122">
            hhcurveto
            -38 callsubr
            return
          </CharString>
          <CharString index="123">
            -11 -9 9 11 return
          </CharString>
          <CharString index="124">
            70 hlineto
            endchar
          </CharString>
          <CharString index="125">
            343 -2 callgsubr
            400 28 callsubr
            return
          </CharString>
          <CharString index="126">
            43 callgsubr
            111 78 327 return
          </CharString>
          <CharString index="127">
            143 52 callsubr
            200 80 40 80 return
          </CharString>
          <CharString index="128">
            -72 callgsubr
            -160 return
          </CharString>
          <CharString index="129">
            43 callgsubr
            40 80 396 return
          </CharString>
          <CharString index="130">
            303 42 callsubr
            396 return
          </CharString>
          <CharString index="131">
            0 70 490 -20 hstem
            0 80 return
          </CharString>
          <CharString index="132">
            hstem
            0 80 vstem
            -20 hmoveto
            return
          </CharString>
          <CharString index="133">
            -35 -20 -40 0 -40 hhcurveto
            return
          </CharString>
          <CharString index="134">
            -29 callgsubr
            70 return
          </CharString>
          <CharString index="135">
            80 17 callgsubr
            return
          </CharString>
          <CharString index="136">
            16 callgsubr
            -60 45 -30 55 return
          </CharString>
          <CharString index="137">
            -56 32 callsubr
            return
          </CharString>
          <CharString index="138">
            hstemhm
            0 42 return
          </CharString>
          <CharString index="139">
            -79 callsubr
            -19 callgsubr
            return
          </CharString>
          <CharString index="140">
            70 rmoveto
            -100 hlineto
            -92 160 -59 -57 59 -103 rlineto
            return
          </CharString>
          <CharString index="141">
            600 17 callsubr
          </CharString>
          <CharString index="142">
            0 70 hstem
            -20 return
          </CharString>
          <CharString index="143">
            180 rmoveto
            return
          </CharString>
          <CharString index="144">
            416 -82 callsubr
            -476 -70 return
          </CharString>
          <CharString index="145">
            303 -69 callsubr
            hstem
            476 84 vstem
            return
          </CharString>
          <CharString index="146">
            -40 -70 40 callsubr
            return
          </CharString>
          <CharString index="147">
            40 -40 rlineto
            return
          </CharString>
          <CharString index="148">
            -190 -140 -50 140 -70 -350 return
          </CharString>
          <CharString index="149">
            -25 callgsubr
            0 80 return
          </CharString>
          <CharString index="150">
            334 -70 callgsubr
            return
          </CharString>
          <CharString index="151">
            rmoveto
            17 -10 47 79 -17 10 rlineto
            endchar
          </CharString>
          <CharString index="152">
            -32 -22 8 callgsubr
            return
          </CharString>
          <CharString index="153">
            70 vstem
            210 return
          </CharString>
          <CharString index="154">
            130 vlineto
            return
          </CharString>
          <CharString index="155">
            -4 -23 -10 -18 -24 -14 rrcurveto
            52 hlineto
            return
          </CharString>
          <CharString index="156">
            -105 callsubr
            hvcurveto
            return
          </CharString>
          <CharString index="157">
            -62 callsubr
            endchar
          </CharString>
          <CharString index="158">
            -107 -15 callsubr
            hstem
            70 80 vstem
            return
          </CharString>
          <CharString index="159">
            0 70 -70 180 -70 70 hstemhm
            return
          </CharString>
          <CharString index="160">
            43 30 13 27 16 hvcurveto
            51 hlineto
            return
          </CharString>
          <CharString index="161">
            -160 20 rmoveto
            11 9 9 11 return
          </CharString>
          <CharString index="162">
            vlineto
            -19 0 -26 -20 vhcurveto
            endchar
          </CharString>
          <CharString index="163">
            -7 -3 3 7 hvcurveto
            return
          </CharString>
          <CharString index="164">
            -32 -22 6 23 -23 return
          </CharString>
          <CharString index="165">
            0 42 85 80 return
          </CharString>
          <CharString index="166">
            hlineto
            92 -160 59 57 -59 103 rlineto
            59 hlineto
            endchar
          </CharString>
          <CharString index="167">
            vlineto
            29 -13 31 -30 22 vhcurveto
            -92 return
          </CharString>
        <CharString name=".notdef">
          33 0 40 370 40 hstem
          40 40 170 40 vstem
          40 450 rmoveto
          -450 250 450 vlineto
          -186 -40 rmoveto
          119 hlineto
          -59 -137 rlineto
          21 -51 rmoveto
          65 149 rlineto
          -297 vlineto
          -108 148 rmoveto
          -62 -141 rlineto
          283 vlineto
          84 -192 rmoveto
          57 -132 rlineto
          -115 hlineto
          endchar
        </CharString>
        <CharString name="ainar">
          383 27 callsubr
          160 -20 hstem
          0 80 274 62 vstem
          100 hmoveto
          499 -28 callsubr
          -286 -8 callsubr
          11 9 9 11 hvcurveto
          endchar
        </CharString>
        <CharString name="ainar.1">
          -81 callsubr
          260 -62 callsubr
          -273 0 callgsubr
        </CharString>
        <CharString name="ainar.2">
          -81 callsubr
          45 hlineto
          31 101 47 23 54 hvcurveto
          -203 0 callgsubr
        </CharString>
        <CharString name="ainar.3">
          33 -250 31 219 70 80 60 hstemhm
          0 80 -30 80 hintmask 11010000
          254 -219 rmoveto
          -6 callsubr
          79 -62 callsubr
          hintmask 11101000
          -7 callgsubr
          -88 -30 -102 -63 38 hvcurveto
          hintmask 11010000
          -43 -29 -23 -52 -54 vvcurveto
          -12 callgsubr
          vhcurveto
          -8 -49 -35 -4 -26 hhcurveto
          endchar
        </CharString>
        <CharString name="ainar.fina">
          7 -250 31 219 70 160 -20 hstem
          0 80 104 80 vstem
          254 -219 rmoveto
          -6 callsubr
          134 70 -40 200 -21 callgsubr
          -100 vlineto
          -80 80 -42 -71 89 -89 rlineto
          -1 -44 callsubr
          endchar
        </CharString>
        <CharString name="ainar.init">
          33 0 70 160 -20 hstemhm
          -20 86 -62 62 hintmask 00000000
          hintmask 11100000
          -20 hmoveto
          269 -62 callsubr
          hintmask 11010000
          -76 callsubr
          hintmask 11100000
          -46 hlineto
          endchar
        </CharString>
        <CharString name="ainar.init.1">
          -17 0 70 80 60 hstem
          0 80 vstem
          240 70 rmoveto
          -7 callgsubr
          -77 -33 -78 -62 19 hvcurveto
          -25 -70 219 hlineto
          endchar
        </CharString>
        <CharString name="ainar.medi">
          -55 -30 callsubr
          122 80 vstem
          203 70 rmoveto
          -1 1 rlineto
          199 -99 callsubr
          -100 vlineto
          -80 80 -42 -71 89 -89 rlineto
          -109 -70 262 17 callsubr
        </CharString>
        <CharString name="alefHamzaabovear">
          -97 0 43 431 29 33 25 hstem
          0 80 vstem
          209 503 -73 callsubr
          -112 -394 -29 callsubr
        </CharString>
        <CharString name="alefHamzabelowar">
          -97 -107 29 33 25 20 43 517 -20 hstemhm
          0 80 hintmask 10111000
          127 43 rmoveto
          -24 -23 11 26 hvcurveto
          -50 callsubr
          -50 -121 rmoveto
          -8 -5 7 8 hvcurveto
          hintmask 11111000
          -34 callgsubr
          vhcurveto
          -65 callsubr
          -17 -29 rlineto
          108 hlineto
          17 29 rlineto
          endchar
        </CharString>
        <CharString name="alefMaddaar">
          703 endchar
        </CharString>
        <CharString name="alefMaksuraar">
          -101 callsubr
        </CharString>
        <CharString name="alefMaksuraar.1">
          -50 -15 callsubr
          70 67 64 -21 70 83 25 callgsubr
          159 -43 -102 callsubr
          -70 -90 callgsubr
          126 -4 callgsubr
          vhcurveto
          endchar
        </CharString>
        <CharString name="alefMaksuraar.2">
          -104 callsubr
          260 50 callsubr
        </CharString>
        <CharString name="alefMaksuraar.3">
          -104 callsubr
          405 50 callsubr
        </CharString>
        <CharString name="alefMaksuraar.4">
          -104 callsubr
          560 50 callsubr
        </CharString>
        <CharString name="alefMaksuraar.5">
          -104 callsubr
          45 hlineto
          31 101 47 23 54 hvcurveto
          endchar
        </CharString>
        <CharString name="alefMaksuraar.6">
          -104 callsubr
          46 hlineto
          125 258 36 18 163 hvcurveto
          9 16 rlineto
          endchar
        </CharString>
        <CharString name="alefMaksuraar.fina">
          -85 callgsubr
        </CharString>
        <CharString name="alefMaksuraar.fina.0">
          -85 callgsubr
        </CharString>
        <CharString name="alefMaksuraar.fina.1">
          -90 -15 callsubr
          70 -56 callsubr
          -70 -90 callgsubr
          126 -4 callgsubr
          57 callsubr
          vhcurveto
          -31 31 rlineto
          hintmask 11101100
          -28 callgsubr
        </CharString>
        <CharString name="alefMaksuraar.fina.2">
          -90 -64 callsubr
          159 -40 rmoveto
          45 callsubr
          hintmask 10110000
          -84 callgsubr
          hintmask 11010000
          -95 callsubr
          hintmask 10110000
          -79 callgsubr
          260 50 callsubr
        </CharString>
        <CharString name="alefMaksuraar.fina.3">
          -90 -64 callsubr
          159 -40 rmoveto
          45 callsubr
          hintmask 10110000
          -84 callgsubr
          hintmask 11010000
          -95 callsubr
          hintmask 10110000
          -79 callgsubr
          405 50 callsubr
        </CharString>
        <CharString name="alefMaksuraar.fina.4">
          -90 -64 callsubr
          159 -40 rmoveto
          45 callsubr
          hintmask 10110000
          -84 callgsubr
          hintmask 11010000
          -95 callsubr
          hintmask 10110000
          -79 callgsubr
          560 50 callsubr
        </CharString>
        <CharString name="alefMaksuraar.fina.5">
          -90 -64 callsubr
          159 -40 rmoveto
          45 callsubr
          hintmask 10110000
          -84 callgsubr
          hintmask 11010000
          -95 callsubr
          hintmask 10110000
          -79 callgsubr
          45 hlineto
          31 101 47 23 54 hvcurveto
          endchar
        </CharString>
        <CharString name="alefMaksuraar.fina.6">
          -90 -64 callsubr
          159 -40 rmoveto
          45 callsubr
          hintmask 10110000
          -84 callgsubr
          hintmask 11010000
          -95 callsubr
          hintmask 10110000
          -79 callgsubr
          46 hlineto
          125 258 36 18 163 hvcurveto
          9 16 rlineto
          endchar
        </CharString>
        <CharString name="alefMaksuraar.fina.tooth">
          -17 36 callgsubr
          70 hstem
          0 80 116 84 vstem
          166 -40 rmoveto
          -76 hlineto
          56 callsubr
          80 -80 -120 vlineto
          -25 15 -15 23 vhcurveto
          118 -72 callsubr
          endchar
        </CharString>
        <CharString name="alefWaslaar">
          -80 endchar
        </CharString>
        <CharString name="alefar">
          63 0 48 512 -12 callsubr
          140 rmoveto
          420 -99 callsubr
          -400 vlineto
          -95 76 -45 82 60 63 24 46 39 vhcurveto
          -12 -28 -44 -10 -43 hhcurveto
          -64 -61 22 70 hvcurveto
          endchar
        </CharString>
        <CharString name="alefar.1">
          -97 0 43 517 -12 callsubr
          80 -29 callsubr
        </CharString>
        <CharString name="alefar.2">
          -17 0 37 523 -12 callsubr
          100 rmoveto
          460 -99 callsubr
          -440 vlineto
          -66 52 -34 61 42 47 16 34 38 vhcurveto
          -8 -24 -27 -5 -24 hhcurveto
          -46 -39 17 46 hvcurveto
          endchar
        </CharString>
        <CharString name="alefar.3">
          -177 0 20 540 -20 hstem
          17 callgsubr
          20 vmoveto
          -10 10 20 -10 22 hhcurveto
          38 30 30 50 hvcurveto
          480 -99 callsubr
          -470 vlineto
          -30 -13 -20 -27 vhcurveto
          endchar
        </CharString>
        <CharString name="alefar.fina">
          -177 24 callsubr
          vstem
          80 80 rmoveto
          480 -99 callsubr
          -500 vlineto
          -25 15 -15 23 vhcurveto
          82 70 -30 hlineto
          56 callsubr
          endchar
        </CharString>
        <CharString name="behDotlessar">
          -43 callgsubr
          480 210 rmoveto
          -54 callsubr
        </CharString>
        <CharString name="behDotlessar.fina">
          -43 callgsubr
          560 -8 callgsubr
          51 callgsubr
          -380 7 callgsubr
          539 hlineto
          -10 callsubr
          -66 callgsubr
        </CharString>
        <CharString name="behDotlessar.fina.1">
          303 0 70 hstem
          0 600 vstem
          553 70 rmoveto
          -51 140 -68 -46 34 -94 rlineto
          -368 -73 callgsubr
          34 callsubr
        </CharString>
        <CharString name="behDotlessar.init">
          -177 -38 callgsubr
          vstem
          -20 hmoveto
          79 48 callgsubr
          -80 -20 rlineto
          -140 -20 vlineto
          endchar
        </CharString>
        <CharString name="behDotlessar.init.hah">
          19 callgsubr
          90 -99 callsubr
          -70 55 callsubr
        </CharString>
        <CharString name="behDotlessar.medi">
          -177 -38 callgsubr
          vstem
          80 -8 callgsubr
          51 callgsubr
          -20 -70 79 vlineto
          -10 callsubr
          -66 callgsubr
        </CharString>
        <CharString name="behDotlessar.medi.1">
          -147 35 callsubr
          170 vstem
          110 70 rmoveto
          -70 70 8 callsubr
          -20 -70 170 17 callsubr
        </CharString>
        <CharString name="behDotlessar.medi.high">
          55 callgsubr
          80 -8 callgsubr
          -50 callgsubr
          -180 -20 -70 79 vlineto
          -10 callsubr
          -66 callgsubr
        </CharString>
        <CharString name="behDotlessar.medi.high.1">
          -177 53 callgsubr
          vstem
          80 -8 callgsubr
          150 -99 callsubr
          -170 -20 -70 79 vlineto
          -10 callsubr
          -66 callgsubr
        </CharString>
        <CharString name="behDotlessar.medi.yeh">
          -177 -38 callgsubr
          vstem
          80 80 rmoveto
          150 -99 callsubr
          -210 120 70 -30 vlineto
          56 callsubr
          endchar
        </CharString>
        <CharString name="behar">
          -43 callgsubr
          480 210 rmoveto
          -11 callsubr
          -327 -344 44 callsubr
        </CharString>
        <CharString name="dadar">
          -18 callsubr
          84 vstem
          427 43 callsubr
          206 -75 rmoveto
          -436 hlineto
          -80 80 39 callsubr
          -330 -54 callgsubr
        </CharString>
        <CharString name="dalar">
          38 callsubr
          446 180 -44 callgsubr
        </CharString>
        <CharString name="dalar.fina">
          303 -69 callsubr
          hstemhm
          0 600 45 callgsubr
          557 -71 callsubr
          -326 -53 callgsubr
          hintmask 11010000
          372 -82 callsubr
          -436 58 callgsubr
          34 callsubr
        </CharString>
        <CharString name="dotabovear">
          10 callgsubr
        </CharString>
        <CharString name="dotabovear.alt1">
          -16 callsubr
        </CharString>
        <CharString name="dotbelowar">
          10 callgsubr
        </CharString>
        <CharString name="dotbelowar.alt1">
          -16 callsubr
        </CharString>
        <CharString name="eightar">
          -47 21 -21 280 35 callgsubr
          70 -5 callgsubr
          -350 70 280 70 -280 17 callsubr
        </CharString>
        <CharString name="eightar.1">
          61 callgsubr
          306 23 rmoveto
          -120 327 rlineto
          -66 hlineto
          -120 -327 66 -23 87 238 87 -238 rlineto
          endchar
        </CharString>
        <CharString name="empty">
          endchar
        </CharString>
        <CharString name="fehDotlessar">
          -18 callgsubr
          461 290 -74 callgsubr
        </CharString>
        <CharString name="fehDotlessar.1">
          303 -32 callsubr
          40 80 vstem
          460 -32 callgsubr
          -60 callsubr
          189 -85 callsubr
        </CharString>
        <CharString name="fehDotlessar.2">
          20 callgsubr
          501 290 rmoveto
          -56 -94 callgsubr
          -430 -73 callgsubr
          576 -68 callsubr
        </CharString>
        <CharString name="fehDotlessar.3">
          18 callsubr
          500 -32 callgsubr
          -420 7 callgsubr
          579 hlineto
          -57 callsubr
          11 hvcurveto
          189 -85 callsubr
        </CharString>
        <CharString name="fehDotlessar.fina">
          -18 callgsubr
          572 70 rmoveto
          1 10 0 10 12 vvcurveto
          5 callsubr
          vhcurveto
          -76 callgsubr
          -390 -73 callgsubr
          613 70 hlineto
          -153 -41 callgsubr
        </CharString>
        <CharString name="fehDotlessar.fina.1">
          303 -32 callsubr
          40 80 vstem
          560 70 rmoveto
          47 callsubr
          -36 callsubr
          -80 callsubr
          vhcurveto
          -42 -380 7 callgsubr
          539 hlineto
          -15 callgsubr
        </CharString>
        <CharString name="fehDotlessar.fina.2">
          20 callgsubr
          612 70 rmoveto
          1 10 0 10 12 vvcurveto
          5 callsubr
          vhcurveto
          -76 callgsubr
          -430 -73 callgsubr
          653 70 hlineto
          -153 -41 callgsubr
        </CharString>
        <CharString name="fehDotlessar.fina.3">
          18 callsubr
          600 70 rmoveto
          47 callsubr
          -36 callsubr
          -80 callsubr
          vhcurveto
          -42 -420 7 callgsubr
          579 hlineto
          -15 callgsubr
        </CharString>
        <CharString name="fehDotlessar.init">
          -44 -2 callgsubr
          0 80 52 81 vstem
          -20 hmoveto
          196 hlineto
          24 13 37 65 77 -19 111 -93 -56 -94 callgsubr
          -150 hlineto
          120 -41 callgsubr
        </CharString>
        <CharString name="fehDotlessar.init.1">
          -57 0 70 40 -6 callgsubr
          100 -32 callgsubr
          -140 -70 199 vlineto
          -57 callsubr
          11 hvcurveto
          189 -85 callsubr
        </CharString>
        <CharString name="fehDotlessar.medi">
          -49 0 70 140 70 hstem
          -1 74 53 80 vstem
          206 70 rmoveto
          107 vlineto
          57 -46 46 -57 -57 -47 -46 -57 -28 14 -27 20 -18 vhcurveto
          37 -34 rlineto
          -90 -70 268 70 hlineto
          -148 140 rmoveto
          14 12 -12 -14 hvcurveto
          -69 vlineto
          -47 49 rlineto
          -5 5 -1 7 8 vvcurveto
          14 12 12 15 vhcurveto
          endchar
        </CharString>
        <CharString name="fehDotlessar.medi.1">
          -57 0 70 40 70 33 callgsubr
          47 callsubr
          -36 callsubr
          -80 callsubr
          vhcurveto
          -42 -140 -70 199 vlineto
          -15 callgsubr
        </CharString>
        <CharString name="fehar">
          -18 callgsubr
          494 414 -70 callgsubr
          14 -45 -74 callgsubr
        </CharString>
        <CharString name="fivear">
          -47 0 70 210 35 callgsubr
          70 -5 callgsubr
          -350 210 hlineto
          -140 70 rmoveto
          210 70 -210 vlineto
          endchar
        </CharString>
        <CharString name="fourar">
          53 50 callgsubr
          50 70 -70 190 hintmask 00000000
          hintmask 11110100
          310 280 rmoveto
          70 vlineto
          hintmask 11111000
          41 callsubr
          hlineto
          hintmask 11110100
          310 70 -240 70 240 70 hlineto
          hintmask 11111000
          -120 17 callsubr
        </CharString>
        <CharString name="fourar.1">
          53 21 -21 140 70 70 35 callgsubr
          50 70 vstem
          310 280 rmoveto
          70 41 callsubr
          70 140 240 70 -120 70 vlineto
          endchar
        </CharString>
        <CharString name="fourar.2">
          -47 50 callgsubr
          -70 210 hintmask 00000000
          hintmask 11101000
          210 280 rmoveto
          70 vlineto
          hintmask 11110000
          -210 -350 hlineto
          hintmask 11101000
          210 60 callgsubr
          hintmask 11101000
          140 60 callgsubr
          endchar
        </CharString>
        <CharString name="ghainar">
          383 27 callsubr
          160 -20 30 -20 hstemhm
          0 80 274 62 hintmask 11011100
          446 309 -70 callgsubr
          -299 -230 rmoveto
          499 -62 callsubr
          -139 hlineto
          -32 -53 47 31 hvcurveto
          hintmask 11101100
          39 65 31 20 9 vhcurveto
          -57 callgsubr
          -286 -8 callsubr
          hvcurveto
          hintmask 11011100
          11 9 9 11 vhcurveto
          endchar
        </CharString>
        <CharString name="hahar">
          -70 callsubr
          endchar
        </CharString>
        <CharString name="hahar.1">
          363 14 callsubr
          620 70 rmoveto
          -157 -86 callgsubr
          425 -62 callsubr
          -456 -13 callsubr
          479 hlineto
          endchar
        </CharString>
        <CharString name="hahar.2">
          383 37 callgsubr
          499 -62 callsubr
          -177 -86 callgsubr
          445 -62 callsubr
          -476 -13 callsubr
          endchar
        </CharString>
        <CharString name="hahar.3">
          193 -250 31 219 70 hstem
          0 80 vstem
          170 hmoveto
          239 -62 callsubr
          -137 -92 callgsubr
          -2 -24 callsubr
          endchar
        </CharString>
        <CharString name="hahar.4">
          310 -64 callsubr
          -3 callsubr
          386 -62 callsubr
          -137 -45 callsubr
          331 -62 callsubr
          -344 6 callsubr
          hintmask 11010000
          -28 callgsubr
        </CharString>
        <CharString name="hahar.5">
          330 -64 callsubr
          587 70 rmoveto
          -157 -45 callsubr
          351 -62 callsubr
          -364 hlineto
          -32 -22 3 -81 callgsubr
          hintmask 11010000
          -96 callgsubr
          406 hlineto
          endchar
        </CharString>
        <CharString name="hahar.fina">
          74 -250 31 219 70 160 27 callgsubr
          371 33 callsubr
          -29 -24 callsubr
          50 59 callsubr
        </CharString>
        <CharString name="hahar.init">
          103 35 callsubr
          380 vstem
          223 70 rmoveto
          -93 callgsubr
          -82 -70 339 50 callsubr
        </CharString>
        <CharString name="hahar.init.1">
          123 35 callsubr
          400 vstem
          380 70 rmoveto
          -157 -92 callgsubr
          -82 -70 359 hlineto
          endchar
        </CharString>
        <CharString name="hahar.init.2">
          143 35 callsubr
          420 vstem
          400 70 rmoveto
          -177 -92 callgsubr
          -82 -70 379 hlineto
          endchar
        </CharString>
        <CharString name="hahar.medi">
          -106 -30 callsubr
          -20 271 vstem
          251 33 callsubr
          -79 -70 120 59 callsubr
        </CharString>
        <CharString name="hamzaabovear">
          -55 callsubr
        </CharString>
        <CharString name="hamzaar">
          -1 0 50 57 43 hstem
          85 56 vstem
          256 50 rmoveto
          -91 hlineto
          -15 -9 12 14 15 12 16 26 10 11 -2 -5 13 hvcurveto
          32 -10 -25 18 -25 hhcurveto
          -55 -23 -56 -44 13 hvcurveto
          -19 hlineto
          -29 -50 rlineto
          186 hlineto
          endchar
        </CharString>
        <CharString name="hamzabelowar">
          -55 callsubr
        </CharString>
        <CharString name="hehar">
          -20 callsubr
          100 180 rmoveto
          29 callgsubr
          47 callsubr
          -35 -20 -40 -5 -40 hhcurveto
          -84 callsubr
        </CharString>
        <CharString name="hehar.1">
          -20 callsubr
          120 310 rmoveto
          -129 1 callsubr
          240 vlineto
          -100 -260 -104 callgsubr
        </CharString>
        <CharString name="hehar.2">
          -57 42 callsubr
          40 80 vstem
          120 540 rmoveto
          -359 1 callsubr
          470 vlineto
          -100 -490 -104 callgsubr
        </CharString>
        <CharString name="hehar.fina">
          -57 0 70 33 callgsubr
          150 vlineto
          -35 -20 -40 -5 -40 15 callsubr
          hvcurveto
          140 70 hlineto
          -67 callsubr
        </CharString>
        <CharString name="hehar.fina.1">
          -57 0 70 33 callgsubr
          260 -99 callsubr
          -129 vlineto
          -1 -7 -6 0 -7 15 callsubr
          hvcurveto
          140 70 hlineto
          -67 callsubr
        </CharString>
        <CharString name="hehar.fina.2">
          -57 42 callsubr
          40 80 vstem
          3 callsubr
          490 -99 callsubr
          -359 vlineto
          -1 -7 -6 0 -7 15 callsubr
          hvcurveto
          140 70 hlineto
          -67 callsubr
        </CharString>
        <CharString name="hehar.init">
          -57 -110 70 40 -6 callgsubr
          100 180 rmoveto
          -60 callgsubr
          235 vlineto
          26 callsubr
          -20 -90 -42 callsubr
        </CharString>
        <CharString name="hehar.init.1">
          -57 27 callsubr
          40 70 51 -20 hstem
          0 28 callsubr
          120 231 rmoveto
          -51 -20 vlineto
          -60 callgsubr
          271 vlineto
          -120 -161 -42 callsubr
        </CharString>
        <CharString name="hehar.init.2">
          -57 0 70 40 20 40 70 hstemhm
          -20 220 -200 80 40 80 hintmask 11101100
          100 240 rmoveto
          -43 callsubr
          -10 2 -11 4 -9 hvcurveto
          -4 -9 -2 -11 -10 vvcurveto
          -22 callgsubr
          hintmask 11110000
          -22 -70 hlineto
          hintmask 11101100
          199 hlineto
          -57 callsubr
          11 hvcurveto
          264 vlineto
          26 callsubr
          -70 vmoveto
          -88 callgsubr
        </CharString>
        <CharString name="hehar.init.3">
          -57 0 70 40 20 -37 callgsubr
          120 290 rmoveto
          -50 -20 vlineto
          -43 callsubr
          -10 2 -11 4 -9 hvcurveto
          -4 -9 -2 -11 -10 vvcurveto
          -22 callgsubr
          -22 -70 199 hlineto
          -57 callsubr
          11 hvcurveto
          299 vlineto
          -100 -140 rmoveto
          -88 callgsubr
        </CharString>
        <CharString name="hehar.init.4">
          -57 0 70 36 8 36 70 hstemhm
          -20 220 -202 82 -82 202 -80 80 hintmask 11101010
          120 220 rmoveto
          hintmask 11100100
          44 callgsubr
          hintmask 11110000
          -28 -70 hlineto
          hintmask 11101010
          199 hlineto
          -57 callsubr
          11 hvcurveto
          244 10 callsubr
          -70 vmoveto
          -56 callgsubr
        </CharString>
        <CharString name="hehar.init.5">
          -57 0 70 36 8 36 70 hstem
          -2 82 17 callgsubr
          120 270 rmoveto
          -50 vlineto
          44 callgsubr
          -28 -70 199 hlineto
          -57 callsubr
          11 hvcurveto
          279 vlineto
          -80 -140 rmoveto
          -56 callgsubr
        </CharString>
        <CharString name="hehar.init.6">
          18 callgsubr
          120 220 rmoveto
          hintmask 10100000
          -31 callgsubr
          hintmask 11000000
          -28 -70 hlineto
          hintmask 10010000
          199 hlineto
          -57 callsubr
          11 hvcurveto
          244 10 callsubr
          -30 -60 -59 callsubr
        </CharString>
        <CharString name="hehar.init.7">
          -57 0 70 hstem
          120 80 vstem
          120 270 rmoveto
          -50 vlineto
          -31 callgsubr
          -28 -70 199 hlineto
          -57 callsubr
          11 hvcurveto
          279 vlineto
          -110 -130 -59 callsubr
        </CharString>
        <CharString name="hehar.medi">
          -57 -110 70 40 -6 callgsubr
          240 70 rmoveto
          -40 145 hlineto
          26 callsubr
          -75 callsubr
        </CharString>
        <CharString name="hehar.medi.1">
          -57 27 callsubr
          40 70 51 -20 hstem
          0 28 callsubr
          240 70 rmoveto
          -40 181 -21 callgsubr
          -51 -20 vlineto
          -75 callsubr
        </CharString>
        <CharString name="hehar.medi.2">
          9 callsubr
          205 vlineto
          26 callsubr
          -43 callsubr
          -10 2 -11 4 -9 hvcurveto
          -4 -9 -2 -11 -10 vvcurveto
          -22 callgsubr
          -22 -70 199 hlineto
          -10 callsubr
          -140 100 rmoveto
          -88 callgsubr
        </CharString>
        <CharString name="hehar.medi.3">
          9 callsubr
          240 -99 callsubr
          -50 -20 vlineto
          -43 callsubr
          -10 2 -11 4 -9 hvcurveto
          -4 -9 -2 -11 -10 vvcurveto
          -22 callgsubr
          -22 -70 199 hlineto
          -10 callsubr
          -140 100 rmoveto
          -88 callgsubr
        </CharString>
        <CharString name="hehar.medi.4">
          -57 0 70 36 8 36 70 hstemhm
          -2 82 -82 202 -80 80 hintmask 11110100
          3 callsubr
          185 10 callsubr
          hintmask 11101000
          44 callgsubr
          -28 -70 hlineto
          hintmask 11110100
          199 hlineto
          -10 callsubr
          -120 80 rmoveto
          -56 callgsubr
        </CharString>
        <CharString name="hehar.medi.5">
          -61 callgsubr
        </CharString>
        <CharString name="hehar.medi.6">
          18 callgsubr
          3 callsubr
          185 10 callsubr
          hintmask 10100000
          -31 callgsubr
          hintmask 11000000
          -28 -70 hlineto
          hintmask 10010000
          -49 callsubr
        </CharString>
        <CharString name="hehar.medi.7">
          -61 callgsubr
        </CharString>
        <CharString name="jeemar">
          -70 callsubr
          153 -224 44 callsubr
        </CharString>
        <CharString name="kafar">
          19 callsubr
          84 vstem
          486 36 callsubr
          -360 hlineto
          41 74 22 88 101 vvcurveto
          37 -3 39 -6 41 vhcurveto
          -80 -80 rlineto
          7 -40 4 -42 -43 vvcurveto
          -83 -15 -85 -34 -77 vhcurveto
          414 hlineto
          38 callgsubr
          579 -45 callgsubr
        </CharString>
        <CharString name="kafar.1">
          22 callsubr
          84 vstem
          486 36 callsubr
          -366 -30 callgsubr
          -430 436 vlineto
          38 callgsubr
          579 -45 callgsubr
        </CharString>
        <CharString name="kafar.2">
          343 -69 callsubr
          hstem
          516 84 vstem
          486 36 callsubr
          -366 -53 callgsubr
          412 hlineto
          38 callgsubr
          579 -45 callgsubr
        </CharString>
        <CharString name="kafar.fina">
          19 callsubr
          47 callgsubr
          597 -71 callsubr
          -360 hlineto
          41 74 22 88 101 vvcurveto
          37 -3 39 -6 41 vhcurveto
          -80 -80 rlineto
          7 -40 4 -42 -43 vvcurveto
          -83 -15 -85 -34 -77 vhcurveto
          414 hlineto
          38 callgsubr
          640 17 callsubr
        </CharString>
        <CharString name="kafar.fina.1">
          22 callsubr
          47 callgsubr
          597 -71 callsubr
          -366 -30 callgsubr
          -430 436 vlineto
          38 callgsubr
          640 17 callsubr
        </CharString>
        <CharString name="kafar.fina.2">
          343 -69 callsubr
          hstemhm
          0 640 45 callgsubr
          597 -71 callsubr
          -366 -53 callgsubr
          hintmask 11010000
          412 hlineto
          38 callgsubr
          640 17 callsubr
        </CharString>
        <CharString name="kafar.init">
          24 callgsubr
          84 vstem
          424 36 callsubr
          -360 hlineto
          41 74 22 88 101 vvcurveto
          37 -3 39 -6 41 vhcurveto
          -80 -80 rlineto
          7 -40 4 -42 -43 vvcurveto
          -83 -15 -85 -34 -77 vhcurveto
          414 -82 callsubr
          -474 -66 hlineto
          -2 -4 14 callgsubr
        </CharString>
        <CharString name="kafar.init.1">
          23 callsubr
          84 vstem
          446 36 callsubr
          -366 -30 callgsubr
          -430 436 vlineto
          -87 callgsubr
          -496 -70 559 -45 callgsubr
        </CharString>
        <CharString name="kafar.init.2">
          283 -69 callsubr
          hstem
          456 84 vstem
          426 36 callsubr
          -370 -53 callgsubr
          37 callsubr
          -40 callgsubr
        </CharString>
        <CharString name="kafar.medi">
          24 callgsubr
          47 callgsubr
          535 -71 callsubr
          -360 hlineto
          41 74 22 88 101 vvcurveto
          37 -3 39 -6 41 vhcurveto
          -80 -80 rlineto
          7 -40 4 -42 -43 vvcurveto
          -83 -15 -85 -34 -77 vhcurveto
          414 -82 callsubr
          -474 -66 hlineto
          -2 -4 rlineto
          34 callsubr
        </CharString>
        <CharString name="kafar.medi.1">
          23 callsubr
          47 callgsubr
          557 -71 callsubr
          -366 -30 callgsubr
          -430 436 vlineto
          -87 callgsubr
          -496 -70 620 17 callsubr
        </CharString>
        <CharString name="kafar.medi.2">
          283 -69 callsubr
          hstemhm
          -20 600 45 callgsubr
          537 -71 callsubr
          -370 -53 callgsubr
          hintmask 11010000
          37 callsubr
          34 callsubr
        </CharString>
        <CharString name="kashidaar">
          -217 35 callsubr
          100 vstem
          -20 hmoveto
          100 70 -100 hlineto
          endchar
        </CharString>
        <CharString name="khahar">
          343 27 callsubr
          172 27 callgsubr
          556 242 -70 callgsubr
          -409 -163 rmoveto
          -87 callsubr
          endchar
        </CharString>
        <CharString name="lam_alefar">
          63 0 70 490 -20 hstemhm
          230 92 hintmask 00000000
          hintmask 11100000
          322 560 rmoveto
          -92 -40 -3 -102 -17 -83 -36 -81 rlinecurve
          -154 266 30 callgsubr
          320 hlineto
          -114 197 49 callgsubr
          rlinecurve
          -135 -490 rmoveto
          -81 hlineto
          18 16 16 18 16 20 rrcurveto
          endchar
        </CharString>
        <CharString name="lam_alefar.1">
          -42 24 callsubr
          55 80 vstem
          172 182 rmoveto
          -10 callgsubr
          215 100 60 callsubr
          -112 rmoveto
          21 callgsubr
        </CharString>
        <CharString name="lam_alefar.2">
          23 0 60 500 -20 hstem
          40 28 callsubr
          280 hmoveto
          -108 142 -48 callgsubr
          350 -99 callsubr
          -330 vlineto
          68 -68 39 callgsubr
          32 callgsubr
          rmoveto
          26 callgsubr
          40 40 rcurveline
          endchar
        </CharString>
        <CharString name="lam_alefar.3">
          23 0 60 500 -20 hstem
          40 28 callsubr
          280 hmoveto
          -108 142 -48 callgsubr
          320 -99 callsubr
          -300 vlineto
          68 -68 39 callgsubr
          32 callgsubr
          rmoveto
          26 callgsubr
          40 40 rcurveline
          endchar
        </CharString>
        <CharString name="lam_alefar.4">
          -26 callgsubr
          0 vmoveto
          360 hlineto
          -46 34 -62 54 -42 52 -58 callsubr
          180 -8 callgsubr
          40 callsubr
          -80 hlineto
          endchar
        </CharString>
        <CharString name="lam_alefar.5">
          -26 callgsubr
          0 vmoveto
          360 hlineto
          -46 34 -62 54 -42 52 -78 callgsubr
          295 -99 callsubr
          -275 -47 callgsubr
          180 -8 callgsubr
          40 callsubr
          -80 hlineto
          endchar
        </CharString>
        <CharString name="lam_alefar.fina">
          63 0 70 490 -20 hstemhm
          -40 400 -130 92 hintmask 11100000
          280 70 rmoveto
          -74 127 rlineto
          hintmask 11010000
          49 callgsubr
          -92 -40 rcurveline
          -3 -102 -17 -83 -36 -81 -154 266 rcurveline
          30 callgsubr
          360 70 hlineto
          -254 hmoveto
          18 16 16 18 16 20 31 -54 rcurveline
          endchar
        </CharString>
        <CharString name="lam_alefar.fina.1">
          -42 24 callsubr
          55 80 vstem
          215 70 rmoveto
          30 vlineto
          29 -13 31 -30 22 vhcurveto
          -10 callgsubr
          255 70 vlineto
          -175 hmoveto
          21 callgsubr
        </CharString>
        <CharString name="lam_alefar.fina.2">
          -41 callsubr
          350 -99 callsubr
          -330 vlineto
          68 -68 rlineto
          hintmask 10111000
          39 callgsubr
          320 hlineto
          hintmask 01111000
          70 vlineto
          -220 hmoveto
          40 40 40 -40 26 callgsubr
          rlinecurve
          endchar
        </CharString>
        <CharString name="lam_alefar.fina.3">
          -41 callsubr
          320 -99 callsubr
          -300 vlineto
          68 -68 rlineto
          hintmask 10111000
          39 callgsubr
          320 hlineto
          hintmask 01111000
          70 vlineto
          -220 hmoveto
          40 40 40 -40 26 callgsubr
          rlinecurve
          endchar
        </CharString>
        <CharString name="lam_alefar.fina.4">
          -26 callgsubr
          276 70 rmoveto
          -24 22 -23 24 -19 24 -58 callsubr
          400 70 hlineto
          -260 hmoveto
          40 40 40 callsubr
          endchar
        </CharString>
        <CharString name="lam_alefar.fina.5">
          -26 callgsubr
          276 70 rmoveto
          -24 22 -23 24 -19 24 -78 callgsubr
          295 -99 callsubr
          -275 -47 callgsubr
          400 70 hlineto
          -260 hmoveto
          40 40 40 callsubr
          endchar
        </CharString>
        <CharString name="lamar">
          -107 -15 callsubr
          740 -20 hstem
          70 80 vstem
          -130 -250 rmoveto
          -97 callgsubr
          770 -99 callsubr
          -720 -100 vlineto
          -93 callsubr
          endchar
        </CharString>
        <CharString name="lamar.fina">
          -107 -37 callsubr
          490 -20 hstem
          70 80 vstem
          190 70 rmoveto
          -99 callgsubr
          450 -99 callsubr
          -720 -106 callsubr
          40 vlineto
          endchar
        </CharString>
        <CharString name="lamar.init">
          -177 24 callsubr
          vstem
          -20 hmoveto
          62 -95 callgsubr
          520 -99 callsubr
          -470 -20 vlineto
          endchar
        </CharString>
        <CharString name="lamar.init.hah">
          19 callgsubr
          380 -99 callsubr
          -360 55 callsubr
        </CharString>
        <CharString name="lamar.init.lellah">
          55 callgsubr
          -20 hmoveto
          62 -95 callgsubr
          490 -99 callsubr
          -440 -20 vlineto
          endchar
        </CharString>
        <CharString name="lamar.medi">
          -177 24 callsubr
          vstem
          80 -8 callgsubr
          450 -99 callsubr
          -470 -20 -70 140 70 vlineto
          -66 callgsubr
        </CharString>
        <CharString name="lamar.medi.lellah">
          55 callgsubr
          80 -8 callgsubr
          390 -99 callsubr
          -410 -20 -70 140 70 vlineto
          -66 callgsubr
        </CharString>
        <CharString name="meemar">
          20 callsubr
          hintmask 00000000
          hintmask 01011000
          300 41 callgsubr
          -22 callgsubr
          -102 hlineto
          -101 callgsubr
          300 -35 callgsubr
        </CharString>
        <CharString name="meemar.1">
          -17 52 callsubr
          40 80 40 80 hintmask 00000000
          hintmask 01011000
          140 41 callgsubr
          -40 -5 -30 -35 -20 vhcurveto
          140 -35 callgsubr
        </CharString>
        <CharString name="meemar.2">
          -19 -40 70 -9 -21 70 70 hstemhm
          158 80 hintmask 01110000
          138 140 rmoveto
          -53 -44 -37 -48 -3 hvcurveto
          48 callsubr
          hintmask 10110000
          -27 17 32 -13 37 hhcurveto
          11 callgsubr
          hintmask 01110000
          -36 callsubr
          vhcurveto
          hintmask 10110000
          -84 callsubr
        </CharString>
        <CharString name="meemar.fina">
          20 callsubr
          -80 120 hintmask 10111000
          399 -1 callsubr
          -22 callgsubr
          -102 hlineto
          -101 callgsubr
          440 70 hlineto
          54 callsubr
          vhcurveto
          hintmask 10111000
          49 callsubr
          hintmask 10110100
          16 callsubr
          hvcurveto
          endchar
        </CharString>
        <CharString name="meemar.fina.1">
          -17 52 callsubr
          40 80 40 80 -80 120 hintmask 10111000
          239 -1 callsubr
          -40 -5 -30 -35 -20 vhcurveto
          280 70 hlineto
          54 callsubr
          vhcurveto
          hintmask 10111000
          49 callsubr
          hintmask 10110100
          16 callsubr
          hvcurveto
          endchar
        </CharString>
        <CharString name="meemar.fina.2">
          -21 -40 70 -30 70 0 70 hstemhm
          156 120 hintmask 01010000
          276 70 rmoveto
          -42 hlineto
          hintmask 00110000
          40 -11 -40 30 -47 hhcurveto
          -53 -44 -37 -48 -3 hvcurveto
          hintmask 01010000
          48 callsubr
          hintmask 10010000
          -27 17 32 -13 37 hhcurveto
          hintmask 01010000
          53 callsubr
          hintmask 10110000
          -140 30 -104 callgsubr
        </CharString>
        <CharString name="meemar.init">
          -57 52 callsubr
          -20 100 -80 80 40 80 hintmask 00000000
          hintmask 01001100
          100 54 callgsubr
          hintmask 10101100
          -22 callgsubr
          hintmask 10110100
          -22 -70 -17 callsubr
          11 callgsubr
          hintmask 01001100
          -36 callsubr
          vhcurveto
          hintmask 10101100
          -84 callsubr
        </CharString>
        <CharString name="meemar.medi">
          -57 -69 callsubr
          hstemhm
          -20 100 -80 80 40 80 -80 120 hintmask 11011000
          199 70 rmoveto
          -39 callgsubr
          -22 callgsubr
          hintmask 11100100
          -22 -70 260 70 hlineto
          hintmask 11011000
          -67 callsubr
        </CharString>
        <CharString name="meemar.medi.1">
          -57 -40 70 -30 70 0 70 hstemhm
          -20 100 40 120 hintmask 01011000
          240 70 rmoveto
          -42 hlineto
          hintmask 00111000
          40 -11 -40 30 -47 hhcurveto
          hintmask 01011000
          -47 -40 -30 -40 -11 hvcurveto
          -22 -70 31 hlineto
          hintmask 10011000
          -27 16 30 -13 43 hhcurveto
          hintmask 01011000
          53 callsubr
          hintmask 10111000
          -140 30 -104 callgsubr
        </CharString>
        <CharString name="ninear">
          -47 21 -21 140 70 70 35 callgsubr
          70 -5 callgsubr
          -210 140 -140 70 hlineto
          -140 210 rmoveto
          70 70 -70 vlineto
          endchar
        </CharString>
        <CharString name="noonar">
          51 callsubr
          127 284 -70 callgsubr
          -10 -65 -27 callgsubr
        </CharString>
        <CharString name="noonghunnaar">
          51 callsubr
          70 140 -27 callgsubr
        </CharString>
        <CharString name="noonghunnaar.fina">
          -107 -37 callsubr
          hstem
          70 80 vstem
          190 70 rmoveto
          -50 hlineto
          -70 70 -14 callgsubr
          210 40 vlineto
          endchar
        </CharString>
        <CharString name="onear">
          -187 21 -21 59 callgsubr
          vstem
          350 vmoveto
          -350 70 350 vlineto
          endchar
        </CharString>
        <CharString name="qafDotlessar">
          -1 -23 callsubr
          hintmask 00000000
          hintmask 11111010
          142 -70 -80 callgsubr
        </CharString>
        <CharString name="qafDotlessar.fina">
          -41 -23 callsubr
          hintmask 11111100
          256 hmoveto
          70 -57 vlineto
          -39 callgsubr
          -60 45 -30 55 vhcurveto
          27 hlineto
          -127 -140 -23 callgsubr
          -51 hlineto
          hintmask 11111100
          64 70 rlineto
          -75 90 -94 callsubr
        </CharString>
        <CharString name="qafar">
          -1 -23 callsubr
          hintmask 11111100
          105 334 -65 callgsubr
          hintmask 11111010
          55 -335 -80 callgsubr
        </CharString>
        <CharString name="rehar">
          12 callgsubr
          -63 -110 -34 callsubr
        </CharString>
        <CharString name="rehar.1">
          15 -29 callgsubr
          105 hstem
          213 84 vstem
          -63 -110 rmoveto
          -1 callgsubr
          139 -68 46 -168 9 hvcurveto
          -60 -105 rlineto
          -39 callsubr
          endchar
        </CharString>
        <CharString name="rehar.fina">
          12 callsubr
          -50 vlineto
          -36 29 -50 20 -66 21 -80 -140 -7 callsubr
          -5 29 -9 25 hvcurveto
          endchar
        </CharString>
        <CharString name="rehar.fina.1">
          12 callsubr
          -61 vlineto
          -38 21 -53 10 -70 4 -60 -105 -7 callsubr
          -4 29 -10 25 hvcurveto
          endchar
        </CharString>
        <CharString name="sadar">
          -18 callsubr
          84 vstem
          586 36 callsubr
          -436 hlineto
          -80 80 39 callsubr
          -330 -54 callgsubr
        </CharString>
        <CharString name="sadar.1">
          443 -37 callsubr
          40 70 50 -20 hstem
          70 80 466 84 vstem
          586 36 callsubr
          -436 70 -21 callgsubr
          -410 -54 callgsubr
        </CharString>
        <CharString name="sadar.fina">
          -18 callsubr
          47 callgsubr
          697 -14 callsubr
          hlineto
          -80 80 39 callsubr
          -330 -106 callsubr
          590 -49 callgsubr
        </CharString>
        <CharString name="sadar.fina.1">
          443 -37 callsubr
          40 70 50 -20 hstem
          70 80 466 47 callgsubr
          697 -14 callsubr
          70 -21 callgsubr
          -410 -106 callsubr
          590 -49 callgsubr
        </CharString>
        <CharString name="sadar.init">
          373 -69 callsubr
          50 -20 hstem
          0 80 466 84 vstem
          516 36 callsubr
          -436 70 -21 callgsubr
          -160 -20 -70 629 vlineto
          -92 callsubr
        </CharString>
        <CharString name="sadar.medi">
          373 -69 callsubr
          50 -20 hstem
          0 80 466 47 callgsubr
          627 -14 callsubr
          70 -21 callgsubr
          -160 -20 -70 690 -49 callgsubr
        </CharString>
        <CharString name="seenar">
          -86 callsubr
          310 210 -69 callgsubr
        </CharString>
        <CharString name="seenar.1">
          -86 callsubr
          310 230 rmoveto
          13 callgsubr
          -72 callgsubr
          -410 -90 callsubr
          239 vlineto
          endchar
        </CharString>
        <CharString name="seenar.2">
          -63 callgsubr
          -52 callsubr
          310 250 rmoveto
          -46 callgsubr
          -40 callsubr
          -50 callgsubr
          -430 -90 callsubr
          259 vlineto
          endchar
        </CharString>
        <CharString name="seenar.3">
          -63 callgsubr
          170 -20 -52 callsubr
          310 250 rmoveto
          -16 callgsubr
          -370 -90 callsubr
          259 vlineto
          endchar
        </CharString>
        <CharString name="seenar.4">
          -3 callgsubr
          310 270 rmoveto
          -66 callsubr
          hintmask 11101110
          -71 callgsubr
          -390 -90 callsubr
          279 vlineto
          endchar
        </CharString>
        <CharString name="seenar.5">
          -86 callsubr
          310 290 rmoveto
          -220 -100 callsubr
          170 -99 callsubr
          -190 -72 callgsubr
          -410 -90 callsubr
          299 vlineto
          endchar
        </CharString>
        <CharString name="seenar.6">
          74 -37 callsubr
          hstem
          70 80 101 80 vstem
          251 157 rmoveto
          -87 vlineto
          -70 70 -41 -70 -70 70 -14 callgsubr
          210 160 vlineto
          -57 callsubr
          11 hvcurveto
          166 vlineto
          endchar
        </CharString>
        <CharString name="seenar.fina">
          -48 callsubr
          120 vlineto
          -80 -20 rlineto
          13 callsubr
          -100 callsubr
          -71 callgsubr
          -390 -33 callgsubr
        </CharString>
        <CharString name="seenar.fina.1">
          -48 callsubr
          140 -99 callsubr
          13 callgsubr
          -72 callgsubr
          -410 -33 callgsubr
        </CharString>
        <CharString name="seenar.fina.2">
          -63 callgsubr
          -52 callsubr
          57 callgsubr
          -40 callsubr
          -40 callsubr
          -50 callgsubr
          -430 -33 callgsubr
        </CharString>
        <CharString name="seenar.fina.3">
          -63 callgsubr
          170 -20 -52 callsubr
          57 callgsubr
          160 vlineto
          -80 -20 rlineto
          -16 callgsubr
          -370 -33 callgsubr
        </CharString>
        <CharString name="seenar.fina.4">
          -3 callgsubr
          57 callgsubr
          180 -99 callsubr
          -66 callsubr
          hintmask 11101110
          -71 callgsubr
          -390 -21 callsubr
          hintmask 11011110
          -66 callgsubr
        </CharString>
        <CharString name="seenar.fina.5">
          -48 callsubr
          200 -99 callsubr
          -220 -100 callsubr
          170 -99 callsubr
          -190 -72 callgsubr
          -410 -33 callgsubr
        </CharString>
        <CharString name="seenar.init">
          -64 callgsubr
          240 210 rmoveto
          -140 vlineto
          -22 -18 18 22 hvcurveto
          120 vlineto
          -80 -20 rlineto
          13 callsubr
          -62 callgsubr
          -57 callsubr
          11 hvcurveto
          219 vlineto
          endchar
        </CharString>
        <CharString name="seenar.init.1">
          -64 callgsubr
          240 230 rmoveto
          -160 vlineto
          -22 -18 18 22 hvcurveto
          140 vlineto
          -80 -20 rlineto
          13 callgsubr
          -62 callgsubr
          -57 callsubr
          11 hvcurveto
          239 vlineto
          endchar
        </CharString>
        <CharString name="seenar.init.2">
          63 0 70 -47 callsubr
          240 250 rmoveto
          -46 callgsubr
          -40 callsubr
          -50 callgsubr
          -180 -62 callgsubr
          -57 callsubr
          11 hvcurveto
          259 vlineto
          endchar
        </CharString>
        <CharString name="seenar.init.3">
          63 0 70 170 -20 -47 callsubr
          240 250 rmoveto
          -16 callgsubr
          -120 -62 callgsubr
          -57 callsubr
          11 hvcurveto
          259 vlineto
          endchar
        </CharString>
        <CharString name="seenar.init.4">
          9 callgsubr
          240 270 rmoveto
          -66 callsubr
          hintmask 11011100
          51 callgsubr
          -62 callgsubr
          -57 callsubr
          11 hvcurveto
          279 vlineto
          endchar
        </CharString>
        <CharString name="seenar.init.5">
          -64 callgsubr
          240 290 rmoveto
          -220 -100 callsubr
          170 -99 callsubr
          -190 21 callsubr
          -62 callgsubr
          -57 callsubr
          11 hvcurveto
          299 vlineto
          endchar
        </CharString>
        <CharString name="seenar.init.6">
          43 0 70 hstem
          220 80 vstem
          220 157 rmoveto
          -87 vlineto
          52 callgsubr
          rlineto
          -20 -70 299 hlineto
          -57 callsubr
          11 hvcurveto
          166 vlineto
          endchar
        </CharString>
        <CharString name="seenar.medi">
          -64 callgsubr
          320 -8 callgsubr
          120 vlineto
          -80 -20 rlineto
          -140 vlineto
          -22 -18 18 22 hvcurveto
          120 vlineto
          -80 -20 rlineto
          13 callsubr
          2 callgsubr
        </CharString>
        <CharString name="seenar.medi.1">
          -64 callgsubr
          320 -8 callgsubr
          140 -99 callsubr
          -160 vlineto
          -22 -18 18 22 hvcurveto
          140 vlineto
          -80 -20 rlineto
          13 callgsubr
          2 callgsubr
        </CharString>
        <CharString name="seenar.medi.2">
          63 0 70 -47 callsubr
          320 -8 callgsubr
          -40 callsubr
          -40 callsubr
          -50 callgsubr
          -180 2 callgsubr
        </CharString>
        <CharString name="seenar.medi.3">
          63 0 70 170 -20 -47 callsubr
          320 -8 callgsubr
          160 vlineto
          -80 -20 rlineto
          -16 callgsubr
          -120 2 callgsubr
        </CharString>
        <CharString name="seenar.medi.4">
          9 callgsubr
          320 -8 callgsubr
          180 -99 callsubr
          -66 callsubr
          hintmask 11011100
          51 callgsubr
          31 callgsubr
          hintmask 10111100
          -66 callgsubr
        </CharString>
        <CharString name="seenar.medi.5">
          -64 callgsubr
          320 -8 callgsubr
          200 -99 callsubr
          -220 -100 callsubr
          170 -99 callsubr
          -190 21 callsubr
          2 callgsubr
        </CharString>
        <CharString name="seenar.medi.6">
          73 35 callsubr
          390 vstem
          330 70 rmoveto
          -70 70 -40 -70 52 callgsubr
          rlineto
          -20 -70 390 17 callsubr
        </CharString>
        <CharString name="sevenar">
          -47 0 34 callgsubr
          -280 -70 280 -70 -350 210 350 vlineto
          endchar
        </CharString>
        <CharString name="sevenar.1">
          61 callgsubr
          240 350 rmoveto
          -87 -238 -87 238 -66 -23 120 -327 rlineto
          66 hlineto
          120 327 rlineto
          endchar
        </CharString>
        <CharString name="sheenar">
          -86 callsubr
          219 379 -65 callgsubr
          63 -10 rmoveto
          -24 callgsubr
          63 -100 -69 callgsubr
        </CharString>
        <CharString name="sixar">
          0 callsubr
          -161 140 -189 70 350 vlineto
          endchar
        </CharString>
        <CharString name="sixar.1">
          -47 21 -21 280 70 hstem
          140 -5 callgsubr
          -70 140 -280 17 callsubr
        </CharString>
        <CharString name="space">
          endchar
        </CharString>
        <CharString name="tahar">
          22 callgsubr
          84 vstem
          596 36 callsubr
          -17 callgsubr
          689 hlineto
          -92 callsubr
        </CharString>
        <CharString name="tahar.fina">
          22 callgsubr
          47 callgsubr
          707 70 rmoveto
          95 -15 -58 15 -38 hhcurveto
          -17 callgsubr
          750 70 hlineto
          -58 callgsubr
        </CharString>
        <CharString name="tahar.init">
          373 42 callsubr
          466 84 vstem
          516 36 callsubr
          -436 -30 callgsubr
          -470 -20 -70 629 vlineto
          -92 callsubr
        </CharString>
        <CharString name="tahar.medi">
          373 42 callsubr
          466 47 callgsubr
          627 -14 callsubr
          -30 callgsubr
          -470 -20 -70 690 -49 callgsubr
        </CharString>
        <CharString name="tehMarbutaar">
          -57 -69 callsubr
          65 -20 hstem
          0 28 callsubr
          109 314 -65 callgsubr
          9 -65 rmoveto
          29 callgsubr
          47 callsubr
          -35 -20 -40 -5 -40 hhcurveto
          -84 callsubr
        </CharString>
        <CharString name="tehar">
          -43 callgsubr
          289 279 -65 callgsubr
          209 hmoveto
          -54 callsubr
        </CharString>
        <CharString name="thalar">
          38 callsubr
          327 43 callsubr
          166 -75 -44 callgsubr
        </CharString>
        <CharString name="thehar">
          -43 callgsubr
          266 279 -65 callgsubr
          63 -10 rmoveto
          -24 callgsubr
          186 hmoveto
          -54 callsubr
        </CharString>
        <CharString name="threear">
          53 0 70 70 70 -70 210 hstemhm
          0 70 50 70 50 70 hintmask 00000000
          hintmask 10111100
          240 350 rmoveto
          -20 callgsubr
          vlineto
          -20 callgsubr
          -350 310 70 -240 vlineto
          hintmask 11011100
          70 42 callgsubr
        </CharString>
        <CharString name="threear.1">
          53 21 -21 140 70 -70 210 hstemhm
          0 70 50 70 50 70 hintmask 00000000
          hintmask 10111100
          240 350 rmoveto
          -20 callgsubr
          vlineto
          -20 callgsubr
          -350 70 vlineto
          hintmask 11011100
          140 42 callgsubr
        </CharString>
        <CharString name="threedotsupabovear">
          0 89 hstem
          0 156 1 callgsubr
          -1 -79 rmoveto
          -17 10 47 79 17 -10 rlineto
          endchar
        </CharString>
        <CharString name="threedotsupabovear.alt1">
          0 58 12 58 hstemhm
          0 58 -19 58 -15 58 hintmask 00000000
          hintmask 11010000
          68 70 rmoveto
          -97 callsubr
          hintmask 10100000
          -39 -70 rmoveto
          -97 callsubr
          hintmask 10101000
          82 -83 callsubr
          endchar
        </CharString>
        <CharString name="twoar">
          0 callsubr
          -350 70 189 140 161 vlineto
          endchar
        </CharString>
        <CharString name="twoar.1">
          -47 21 -21 280 70 hstem
          0 -5 callgsubr
          -350 70 280 140 hlineto
          endchar
        </CharString>
        <CharString name="twodotshorizontalabovear">
          -19 callsubr
        </CharString>
        <CharString name="twodotshorizontalabovear.alt1">
          -55 callgsubr
        </CharString>
        <CharString name="twodotshorizontalbelowar">
          -19 callsubr
        </CharString>
        <CharString name="twodotshorizontalbelowar.alt1">
          -55 callgsubr
        </CharString>
        <CharString name="twodotsverticalabovear">
          0 146 hstem
          0 76 vstem
          17 57 -25 callsubr
          -35 -136 -25 callsubr
          endchar
        </CharString>
        <CharString name="twodotsverticalabovear.alt1">
          0 58 22 58 hstemhm
          0 58 hintmask 00000000
          hintmask 11100000
          29 80 rmoveto
          -97 callsubr
          hintmask 10100000
          -80 vmoveto
          -97 callsubr
          endchar
        </CharString>
        <CharString name="wawHamzaabovear">
          -27 27 callsubr
          40 70 50 29 33 25 hstem
          30 80 52 81 vstem
          70 230 -35 callsubr
          146 -168 -98 callgsubr
        </CharString>
        <CharString name="wawar">
          -27 2 callsubr
          30 80 52 81 vstem
          233 91 -98 callgsubr
        </CharString>
        <CharString name="wawar.1">
          23 callgsubr
          130 180 -68 callgsubr
        </CharString>
        <CharString name="wawar.2">
          23 -2 callgsubr
          80 80 52 81 vstem
          283 201 -98 callgsubr
        </CharString>
        <CharString name="wawar.3">
          10 -2 callgsubr
          80 28 callsubr
          180 290 -68 callgsubr
        </CharString>
        <CharString name="wawar.fina">
          -17 27 callsubr
          40 70 hstemhm
          30 80 40 130 -118 81 -81 118 hintmask 00000000
          hintmask 11110010
          280 70 rmoveto
          -43 hlineto
          -1 8 -1 7 -2 6 rrcurveto
          56 -15 -38 33 -50 hhcurveto
          -52 callgsubr
          hvcurveto
          hintmask 11110100
          -83 callgsubr
          -110 -73 callgsubr
          243 hlineto
          31 9 14 24 5 hvcurveto
          4 17 1 22 26 vvcurveto
          7 vlineto
          hintmask 11110010
          37 hlineto
          hintmask 11111000
          -150 70 -104 callgsubr
        </CharString>
        <CharString name="wawar.fina.1">
          23 callgsubr
          270 70 rmoveto
          -40 20 hlineto
          -36 callsubr
          -80 callsubr
          vhcurveto
          -42 -100 7 callgsubr
          -97 callgsubr
          70 40 vlineto
          -140 70 -104 callgsubr
        </CharString>
        <CharString name="yehHamzaabovear">
          -50 36 callgsubr
          40 callgsubr
          45 29 33 25 25 callgsubr
          -2 198 -35 callsubr
          144 -270 -103 callgsubr
        </CharString>
        <CharString name="yehar">
          -101 callsubr
        </CharString>
        <CharString name="yehfarsi">
          -101 callsubr
        </CharString>
        <CharString name="zahar">
          22 callgsubr
          84 vstem
          596 36 callsubr
          -17 callgsubr
          689 -77 callsubr
          -159 154 -70 callgsubr
          236 -185 rmoveto
          -89 callsubr
        </CharString>
        <CharString name="zainar">
          12 callgsubr
          117 215 -25 callsubr
          -227 -404 -34 callsubr
        </CharString>
        <CharString name="zeroar">
          -187 140 70 hstem
          0 46 callsubr
          vmoveto
          -70 70 70 vlineto
          endchar
        </CharString>
      <CharString index="0">
        -11 -9 9 11 -107 callsubr
        hvcurveto
        endchar
      </CharString>
      <CharString index="1">
        -81 callgsubr
        -96 callgsubr
        16 36 10 80 10 hvcurveto
        -15 -3 -14 -5 -9 hhcurveto
        -96 callsubr
        -88 callsubr
        return
      </CharString>
      <CharString index="2">
        -100 -102 callgsubr
        -97 callgsubr
        return
      </CharString>
      <CharString index="3">
        rmoveto
        -107 callgsubr
      </CharString>
      <CharString index="4">
        -102 callsubr
        -40 -90 callgsubr
        96 -4 callgsubr
        vhcurveto
        endchar
      </CharString>
      <CharString index="5">
        vlineto
        -101 callgsubr
        return
      </CharString>
      <CharString index="6">
        -93 callsubr
        -52 -90 rlineto
        return
      </CharString>
      <CharString index="7">
        vmoveto
        -107 callgsubr
      </CharString>
      <CharString index="8">
        -22 -18 18 22 hvcurveto
        return
      </CharString>
      <CharString index="9">
        rmoveto
        56 -15 -38 33 -50 hhcurveto
        -55 -94 callgsubr
        -110 -73 callgsubr
        243 hlineto
        31 9 14 24 5 hvcurveto
        4 17 1 22 26 vvcurveto
        36 -4 37 -6 25 vhcurveto
        -103 -21 -104 callgsubr
      </CharString>
      <CharString index="10">
        242 -95 callgsubr
        return
      </CharString>
      <CharString index="11">
        52 -52 rlineto
        -10 10 9 -5 12 hhcurveto
        return
      </CharString>
      <CharString index="12">
        hlineto
        23 15 15 25 hvcurveto
        return
      </CharString>
      <CharString index="13">
        -45 -40 -50 -50 45 -40 55 -83 callgsubr
        return
      </CharString>
      <CharString index="14">
        -58 -61 65 75 -61 hvcurveto
        -43 -70 19 -28 28 -29 15 -13 rlinecurve
        return
      </CharString>
      <CharString index="15">
        hlineto
        -93 callgsubr
        return
      </CharString>
      <CharString index="16">
        -80 -20 rlineto
        return
      </CharString>
      <CharString index="17">
        -60 -102 callgsubr
        202 -95 callgsubr
        return
      </CharString>
      <CharString index="18">
        -53 hlineto
        -8 -5 7 8 -34 callgsubr
        hvcurveto
        -65 callsubr
        return
      </CharString>
      <CharString index="19">
        -75 callgsubr
        -20 -80 -94 callsubr
      </CharString>
      <CharString index="20">
        22 18 -18 -22 hvcurveto
        return
      </CharString>
      <CharString index="21">
        -92 callgsubr
        -212 -53 callsubr
        return
      </CharString>
      <CharString index="22">
        -90 36 callgsubr
        -56 callsubr
        -40 -90 callgsubr
        96 -4 callgsubr
        57 callsubr
        vhcurveto
        -31 31 rlineto
        hintmask 11101100
        -28 callgsubr
      </CharString>
      <CharString index="23">
        -31 31 -77 callgsubr
        rlinecurve
        return
      </CharString>
      <CharString index="24">
        -19 callgsubr
        hvcurveto
        -76 callgsubr
        return
      </CharString>
      <CharString index="25">
        -9 -11 -11 -9 return
      </CharString>
      <CharString index="26">
        4 callgsubr
        -84 callgsubr
        return
      </CharString>
      <CharString index="27">
        rmoveto
        -51 hlineto
        hintmask 11111100
        88 97 rlineto
        14 15 7 21 27 29 callsubr
        11 10 1 1 9 vhcurveto
        -130 -142 -23 callgsubr
        hintmask 11111100
        -42 140 -104 callgsubr
      </CharString>
      <CharString index="28">
        -88 callsubr
        -85 57 -19 74 -1 vhcurveto
        return
      </CharString>
      <CharString index="29">
        41 41 rcurveline
        13 13 16 18 23 -13 callgsubr
        -16 -8 -18 -12 -21 vhcurveto
        -12 21 -8 18 16 vvcurveto
        return
      </CharString>
      <CharString index="30">
        -17 17 9 47 14 -14 return
      </CharString>
      <CharString index="31">
        2 -7 0 -8 -7 vvcurveto
        -7 0 -8 -2 -7 vhcurveto
        return
      </CharString>
      <CharString index="32">
        -105 callsubr
        -67 callgsubr
        return
      </CharString>
      <CharString index="33">
        rmoveto
        -56 -94 callgsubr
        -390 -73 callgsubr
        536 -68 callsubr
      </CharString>
      <CharString index="34">
        hlineto
        -78 callsubr
        return
      </CharString>
      <CharString index="35">
        -100 callsubr
        140 -99 callsubr
        return
      </CharString>
      <CharString index="36">
        120 -99 callsubr
        return
      </CharString>
      <CharString index="37">
        rmoveto
        -36 callgsubr
        17 -10 rlineto
        return
      </CharString>
      <CharString index="38">
        rmoveto
        13 callsubr
        -100 callsubr
        -71 callgsubr
        -390 -90 callsubr
        219 vlineto
        endchar
      </CharString>
      <CharString index="39">
        -63 callsubr
        -100 7 callgsubr
        -97 callgsubr
        160 -85 callsubr
      </CharString>
      <CharString index="40">
        -59 callgsubr
        hvcurveto
        return
      </CharString>
      <CharString index="41">
        -99 callgsubr
        endchar
      </CharString>
      <CharString index="42">
        -70 callgsubr
        46 hmoveto
        -24 callgsubr
        return
      </CharString>
      <CharString index="43">
        63 0 70 160 -20 -47 callsubr
        return
      </CharString>
      <CharString index="44">
        133 -37 callsubr
        return
      </CharString>
      <CharString index="45">
        -20 -70 79 -42 callgsubr
        -17 callsubr
        return
      </CharString>
      <CharString index="46">
        -57 0 70 hstem
        120 80 vstem
        3 callsubr
        220 -99 callsubr
        -50 vlineto
        -31 callgsubr
        -28 -70 -49 callsubr
      </CharString>
      <CharString index="47">
        -5 callsubr
        hvcurveto
        -52 -70 52 hlineto
        -1 -6 -1 -7 -7 vvcurveto
        -26 callsubr
        vhcurveto
        return
      </CharString>
      <CharString index="48">
        -11 -9 3 callgsubr
        9 11 return
      </CharString>
      <CharString index="49">
        -124 hmoveto
        -89 callsubr
      </CharString>
      <CharString index="50">
        -1 3 rlineto
        -53 -26 -93 -47 -48 vvcurveto
        -13 6 -13 16 -13 vhcurveto
        return
      </CharString>
      <CharString index="51">
        -20 -2 -17 -16 -21 hhcurveto
        20 2 17 16 21 hhcurveto
        -80 vmoveto
        -21 -17 16 20 -2 hvcurveto
        21 17 -16 -20 2 hvcurveto
        endchar
      </CharString>
      <CharString index="52">
        0 58 hstemhm
        0 58 24 58 hintmask 11000000
        4 callsubr
        hintmask 11100000
        82 -83 callsubr
        endchar
      </CharString>
      <CharString index="53">
        -106 callsubr
        529 vlineto
        -92 callsubr
      </CharString>
      <CharString index="54">
        hlineto
        27 70 rlineto
        -3 hlineto
        28 callgsubr
        return
      </CharString>
      <CharString index="55">
        -55 -79 callsubr
        return
      </CharString>
      <CharString index="56">
        70 80 40 80 40 80 return
      </CharString>
      <CharString index="57">
        160 -99 callsubr
        return
      </CharString>
      <CharString index="58">
        70 vlineto
        -58 callgsubr
      </CharString>
      <CharString index="59">
        68 68 6 callgsubr
        -20 -26 -20 26 rlineto
        return
      </CharString>
      <CharString index="60">
        vlineto
        -18 16 -23 13 -13 vhcurveto
        41 -41 -42 -52 -62 -54 -46 -34 rlinecurve
        return
      </CharString>
      <CharString index="61">
        -180 -100 callsubr
        return
      </CharString>
      <CharString index="62">
        -77 callsubr
        endchar
      </CharString>
      <CharString index="63">
        rmoveto
        -326 -53 callgsubr
        372 -82 callsubr
        -436 hlineto
        -40 -70 14 callgsubr
      </CharString>
      <CharString index="64">
        303 -30 callsubr
        480 80 vstem
        return
      </CharString>
      <CharString index="65">
        vlineto
        -17 callsubr
        return
      </CharString>
      <CharString index="66">
        110 -104 callgsubr
      </CharString>
      <CharString index="67">
        539 -45 callgsubr
      </CharString>
      <CharString index="68">
        1 6 0 7 7 16 callgsubr
        return
      </CharString>
      <CharString index="69">
        -30 callsubr
        0 80 return
      </CharString>
      <CharString index="70">
        40 -11 callgsubr
        vstem
        return
      </CharString>
      <CharString index="71">
        -17 10 -47 -79 return
      </CharString>
      <CharString index="72">
        hlineto
        11 callgsubr
        hintmask 01011000
        -36 callsubr
        vhcurveto
        hintmask 10111000
        -84 callsubr
      </CharString>
      <CharString index="73">
        9 7 9 15 5 7 -1 -3 7 return
      </CharString>
      <CharString index="74">
        -21 callsubr
        -66 callgsubr
      </CharString>
      <CharString index="75">
        290 -63 callsubr
        return
      </CharString>
      <CharString index="76">
        -74 -48 -40 -63 -19 4 -16 6 -12 hvcurveto
        return
      </CharString>
      <CharString index="77">
        380 -21 callgsubr
        return
      </CharString>
      <CharString index="78">
        -4 callsubr
        40 return
      </CharString>
      <CharString index="79">
        -77 callgsubr
        rrcurveto
        endchar
      </CharString>
      <CharString index="80">
        rmoveto
        -14 callgsubr
        270 vlineto
        endchar
      </CharString>
      <CharString index="81">
        103 0 70 490 -20 hstem
        80 28 callsubr
        return
      </CharString>
      <CharString index="82">
        -69 callsubr
        380 -20 hstem
        return
      </CharString>
      <CharString index="83">
        47 79 -36 callgsubr
        rlineto
        return
      </CharString>
      <CharString index="84">
        rlineto
        hintmask 11111010
        132 -72 callsubr
        return
      </CharString>
      <CharString index="85">
        -33 callsubr
        vhcurveto
        return
      </CharString>
      <CharString index="86">
        hlineto
        -91 callgsubr
        return
      </CharString>
      <CharString index="87">
        hintmask 11011100
        -140 -50 vlineto
        hintmask 10111100
        140 -70 return
      </CharString>
      <CharString index="88">
        10 10 1 3 10 return
      </CharString>
      <CharString index="89">
        316 -32 callsubr
        52 81 vstem
        return
      </CharString>
      <CharString index="90">
        -436 -30 callgsubr
        -470 -40 vlineto
        8 callsubr
        return
      </CharString>
      <CharString index="91">
        -46 callgsubr
        130 -99 callsubr
        -150 -100 callsubr
        100 -99 callsubr
        return
      </CharString>
      <CharString index="92">
        -10 callsubr
        -140 -41 callgsubr
      </CharString>
      <CharString index="93">
        39 callsubr
        -210 -105 callgsubr
        return
      </CharString>
      <CharString index="94">
        vvcurveto
        325 -99 callsubr
        -305 vlineto
        return
      </CharString>
      <CharString index="95">
        -104 86 -56 113 43 46 8 35 76 return
      </CharString>
      <CharString index="96">
        70 hstem
        0 80 40 80 return
      </CharString>
      <CharString index="97">
        -92 66 rlineto
        312 -99 callsubr
        -234 vlineto
        -213 154 -29 -77 242 -175 rlineto
        -208 return
      </CharString>
      <CharString index="98">
        -88 callsubr
        -83 55 -20 72 -2 vhcurveto
        return
      </CharString>
      <CharString index="99">
        110 rmoveto
        return
      </CharString>
      <CharString index="100">
        -127 hlineto
        -21 -12 17 19 21 16 23 37 13 16 -3 -7 18 hvcurveto
        45 -14 -35 25 -35 hhcurveto
        return
      </CharString>
      <CharString index="101">
        70 -37 callgsubr
        return
      </CharString>
      <CharString index="102">
        46 callsubr
        350 rmoveto
        -210 return
      </CharString>
      <CharString index="103">
        vlineto
        25 -13 16 -35 return
      </CharString>
      <CharString index="104">
        -74 callsubr
        30 -20 hstemhm
        -51 callgsubr
        hintmask 11011110
        return
      </CharString>
      <CharString index="105">
        -69 callsubr
        40 70 hstem
        return
      </CharString>
      <CharString index="106">
        339 hlineto
        -57 callsubr
        21 return
      </CharString>
      <CharString index="107">
        6 callsubr
        hintmask 11011100
        -28 callgsubr
      </CharString>
      <CharString index="108">
        vstem
        17 hmoveto
        -27 callsubr
        return
      </CharString>
      <CharString index="109">
        31 callgsubr
        -66 callgsubr
      </CharString>
      <CharString index="110">
        9 11 11 9 return
      </CharString>
      <CharString index="111">
        23 -23 hvcurveto
        return
      </CharString>
      <CharString index="112">
        rmoveto
        -75 callgsubr
        return
      </CharString>
      <CharString index="113">
        rlineto
        350 -99 callsubr
        -330 vlineto
        return
      </CharString>
      <CharString index="114">
        vlineto
        -78 callsubr
        return
      </CharString>
      <CharString index="115">
        3 4 callgsubr
        return
      </CharString>
      <CharString index="116">
        63 0 70 160 -20 30 -20 hstemhm
        -22 callsubr
        hintmask 10111100
        return
      </CharString>
      <CharString index="117">
        0 89 hstem
        0 64 vstem
        17 hmoveto
        -61 callsubr
        endchar
      </CharString>
      <CharString index="118">
        -9 callsubr
        hvcurveto
        return
      </CharString>
      <CharString index="119">
        15 -29 callgsubr
        140 -119 -21 hstemhm
        213 84 hintmask 10110000
        return
      </CharString>
      <CharString index="120">
        -160 21 callsubr
        return
      </CharString>
      <CharString index="121">
        rlineto
        -40 callgsubr
      </CharString>
      <CharString index="122">
        hlineto
        45 callsubr
        -31 31 return
      </CharString>
      <CharString index="123">
        vvcurveto
        -36 callsubr
        -43 callsubr
        return
      </CharString>
      <CharString index="124">
        40 80 vstem
        return
      </CharString>
      <CharString index="125">
        -57 0 70 hstemhm
        -20 220 -202 202 -80 80 hintmask 10010000
        return
      </CharString>
      <CharString index="126">
        -217 0 25 25 callsubr
        57 43 30 40 hvcurveto
        return
      </CharString>
      <CharString index="127">
        356 -2 callgsubr
        400 80 52 81 vstem
        return
      </CharString>
      <CharString index="128">
        80 vlineto
        46 -33 rlineto
        4 -4 5 -5 -8 vvcurveto
        -30 vlineto
        endchar
      </CharString>
      <CharString index="129">
        453 -25 callgsubr
        80 80 466 return
      </CharString>
      <CharString index="130">
        -27 2 callsubr
        30 28 callsubr
        return
      </CharString>
      <CharString index="131">
        281 -25 callgsubr
        49 78 327 return
      </CharString>
      <CharString index="132">
        hstem
        58 callsubr
        vstem
        return
      </CharString>
      <CharString index="133">
        -17 -13 -46 0 -17 13 return
      </CharString>
      <CharString index="134">
        -20 hstem
        0 80 vstem
        return
      </CharString>
      <CharString index="135">
        -80 -140 rlineto
        return
      </CharString>
      <CharString index="136">
        -55 -45 -40 -50 -26 callsubr
        hvcurveto
        return
      </CharString>
      <CharString index="137">
        -60 -57 169 -293 -33 -55 -43 -55 -53 -60 rlinecurve
        return
      </CharString>
      <CharString index="138">
        -62 callgsubr
        -10 callsubr
        return
      </CharString>
      <CharString index="139">
        180 70 return
      </CharString>
      <CharString index="140">
        -37 callgsubr
        3 callsubr
        return
      </CharString>
      <CharString index="141">
        35 callgsubr
        70 70 vstem
        140 350 rmoveto
        return
      </CharString>
      <CharString index="142">
        70 59 callgsubr
        return
      </CharString>
      <CharString index="143">
        -220 70 40 return
      </CharString>
      <CharString index="144">
        14 callsubr
        100 hmoveto
        return
      </CharString>
      <CharString index="145">
        -87 callgsubr
        -476 58 callgsubr
        return
      </CharString>
      <CharString index="146">
        -108 -142 rlineto
        return
      </CharString>
      <CharString index="147">
        67 64 -21 70 83 return
      </CharString>
      <CharString index="148">
        54 callgsubr
        hintmask 10111000
        return
      </CharString>
      <CharString index="149">
        240 vlineto
        hintmask 10111100
        210 vlineto
        endchar
      </CharString>
      <CharString index="150">
        343 -25 callgsubr
        return
      </CharString>
      <CharString index="151">
        -65 -57 -32 -72 -19 4 -15 6 -12 hvcurveto
        return
      </CharString>
      <CharString index="152">
        -124 124 hintmask 11100000
        return
      </CharString>
      <CharString index="153">
        70 0 83 31 callsubr
        return
      </CharString>
      <CharString index="154">
        124 vstem
        return
      </CharString>
      <CharString index="155">
        hlineto
        -57 callsubr
        11 hvcurveto
        219 vlineto
        return
      </CharString>
      <CharString index="156">
        65 109 39 134 12 120 return
      </CharString>
      <CharString index="157">
        0 70 70 70 70 70 hstemhm
        0 70 return
      </CharString>
      <CharString index="158">
        -71 callgsubr
        -140 return
      </CharString>
      <CharString index="159">
        -70 70 -40 -70 -70 70 -40 -70 return
      </CharString>
      <CharString index="160">
        0 70 170 -20 hstem
        0 80 return
      </CharString>
      <CharString index="161">
        -2 callsubr
        hvcurveto
        return
      </CharString>
      <CharString index="162">
        -177 0 70 hstem
        0 80 vstem
        return
      </CharString>
      <CharString index="163">
        hlineto
        16 callsubr
        return
      </CharString>
      <CharString index="164">
        390 -8 callgsubr
        return
      </CharString>
      <CharString index="165">
        hlineto
        8 callsubr
        return
      </CharString>
      <CharString index="166">
        hstem
        0 70 return
      </CharString>
      <CharString index="167">
        70 hlineto
        hintmask 11110000
        -140 70 hlineto
        return
      </CharString>
      <CharString index="168">
        49 21 -21 hstem
        0 306 vstem
        return
      </CharString>
</ttFont>
